<svg width="303" height="109" viewBox="0 0 303 109" fill="none" xmlns="http://www.w3.org/2000/svg">
<path d="M4.62222 88V48H18.0889C21.3778 48 24.3407 48.5481 26.9778 49.6444C29.6148 50.7111 31.8667 52.1778 33.7333 54.0444C35.6296 55.8815 37.0667 58.0148 38.0444 60.4444C39.0519 62.8444 39.5556 65.363 39.5556 68C39.5556 70.637 39.0519 73.1704 38.0444 75.6C37.0667 78 35.6296 80.1333 33.7333 82C31.8667 83.837 29.6148 85.3037 26.9778 86.4C24.3407 87.4667 21.3778 88 18.0889 88H4.62222ZM11.6444 81.4667H17.4222C19.8815 81.4667 22.0148 81.0963 23.8222 80.3556C25.6296 79.6148 27.1407 78.6222 28.3556 77.3778C29.5704 76.1037 30.4741 74.6667 31.0667 73.0667C31.6593 71.437 31.9556 69.7481 31.9556 68C31.9556 66.2519 31.6593 64.5778 31.0667 62.9778C30.4741 61.3481 29.5704 59.8963 28.3556 58.6222C27.1407 57.3481 25.6296 56.3556 23.8222 55.6444C22.0148 54.9037 19.8815 54.5333 17.4222 54.5333H11.6444V81.4667ZM58.1333 88.8C55.4963 88.8 53.0815 88.163 50.8889 86.8889C48.7259 85.6148 47.0074 83.9111 45.7333 81.7778C44.4593 79.6444 43.8222 77.2741 43.8222 74.6667C43.8222 72.0593 44.4593 69.6889 45.7333 67.5556C47.0074 65.4222 48.7259 63.7185 50.8889 62.4444C53.0815 61.1704 55.4815 60.5333 58.0889 60.5333C60.7556 60.5333 63.1704 61.1704 65.3333 62.4444C67.4963 63.7185 69.2148 65.4222 70.4889 67.5556C71.7926 69.6593 72.4444 72.0296 72.4444 74.6667C72.4444 77.2444 71.7926 79.6148 70.4889 81.7778C69.2148 83.9111 67.4963 85.6148 65.3333 86.8889C63.1704 88.163 60.7704 88.8 58.1333 88.8ZM58.0889 82.4889C59.5407 82.4889 60.8444 82.1333 62 81.4222C63.1556 80.7111 64.0741 79.763 64.7556 78.5778C65.437 77.3926 65.7778 76.0889 65.7778 74.6667C65.7778 73.2148 65.437 71.9111 64.7556 70.7556C64.0741 69.5704 63.1556 68.6222 62 67.9111C60.8444 67.2 59.5407 66.8444 58.0889 66.8444C56.6667 66.8444 55.3778 67.2 54.2222 67.9111C53.0667 68.6222 52.1481 69.5704 51.4667 70.7556C50.7852 71.9111 50.4444 73.2148 50.4444 74.6667C50.4444 76.0889 50.7852 77.3926 51.4667 78.5778C52.1481 79.763 53.0667 80.7111 54.2222 81.4222C55.3778 82.1333 56.6667 82.4889 58.0889 82.4889ZM77.5389 88V61.3333H83.8056V64.6222C84.7833 63.2889 85.9833 62.2815 87.4056 61.6C88.8278 60.8889 90.3685 60.5333 92.0278 60.5333C93.9241 60.5333 95.687 60.9926 97.3167 61.9111C98.9759 62.8296 100.309 64.163 101.317 65.9111C102.324 67.6296 102.828 69.7333 102.828 72.2222V88H95.85V73.1556C95.85 71.4963 95.3611 70.0296 94.3833 68.7556C93.4056 67.4815 92.013 66.8444 90.2056 66.8444C88.7241 66.8444 87.4056 67.363 86.25 68.4C85.0944 69.4074 84.5167 70.9481 84.5167 73.0222V88H77.5389ZM122.363 88.8C119.429 88.8 116.822 88.1778 114.54 86.9333C112.288 85.6889 110.525 83.9852 109.251 81.8222C108.007 79.6296 107.385 77.1556 107.385 74.4C107.385 71.763 107.992 69.4074 109.207 67.3333C110.451 65.2296 112.125 63.5704 114.229 62.3556C116.333 61.1407 118.659 60.5333 121.207 60.5333C123.814 60.5333 126.14 61.1407 128.185 62.3556C130.259 63.5407 131.903 65.1556 133.118 67.2C134.333 69.2444 134.94 71.5704 134.94 74.1778V76.7111H118.363C117.622 76.7111 116.896 76.6667 116.185 76.5778C115.474 76.4889 114.762 76.3852 114.051 76.2667C114.407 78.1926 115.34 79.7778 116.851 81.0222C118.363 82.2667 120.259 82.8889 122.54 82.8889C124.229 82.8889 125.755 82.5333 127.118 81.8222C128.481 81.1111 129.607 80.2222 130.496 79.1556L132.096 85.6889C130.763 86.7259 129.266 87.4963 127.607 88C125.948 88.5333 124.2 88.8 122.363 88.8ZM113.874 71.9556C115.385 71.6593 116.881 71.5111 118.363 71.5111H124.096C124.896 71.5111 125.651 71.5407 126.363 71.6C127.074 71.6593 127.755 71.7481 128.407 71.8667C127.963 70.1481 127.088 68.7704 125.785 67.7333C124.511 66.6963 122.97 66.1778 121.163 66.1778C119.385 66.1778 117.844 66.7111 116.54 67.7778C115.237 68.8444 114.348 70.237 113.874 71.9556Z" fill="black"/>
<path d="M234.889 88L219.689 63.3333L231.422 48H239.778L228.044 63.2444L243.467 88H234.889ZM212.622 88V48H219.867V88H212.622ZM258.8 88.8C255.867 88.8 253.259 88.1778 250.978 86.9333C248.726 85.6889 246.963 83.9852 245.689 81.8222C244.444 79.6296 243.822 77.1556 243.822 74.4C243.822 71.763 244.43 69.4074 245.644 67.3333C246.889 65.2296 248.563 63.5704 250.667 62.3556C252.77 61.1407 255.096 60.5333 257.644 60.5333C260.252 60.5333 262.578 61.1407 264.622 62.3556C266.696 63.5407 268.341 65.1556 269.556 67.2C270.77 69.2444 271.378 71.5704 271.378 74.1778V76.7111H254.8C254.059 76.7111 253.333 76.6667 252.622 76.5778C251.911 76.4889 251.2 76.3852 250.489 76.2667C250.844 78.1926 251.778 79.7778 253.289 81.0222C254.8 82.2667 256.696 82.8889 258.978 82.8889C260.667 82.8889 262.193 82.5333 263.556 81.8222C264.919 81.1111 266.044 80.2222 266.933 79.1556L268.533 85.6889C267.2 86.7259 265.704 87.4963 264.044 88C262.385 88.5333 260.637 88.8 258.8 88.8ZM250.311 71.9556C251.822 71.6593 253.319 71.5111 254.8 71.5111H260.533C261.333 71.5111 262.089 71.5407 262.8 71.6C263.511 71.6593 264.193 71.7481 264.844 71.8667C264.4 70.1481 263.526 68.7704 262.222 67.7333C260.948 66.6963 259.407 66.1778 257.6 66.1778C255.822 66.1778 254.281 66.7111 252.978 67.7778C251.674 68.8444 250.785 70.237 250.311 71.9556ZM274.489 101.333L283.333 83.6444L272.356 61.3333H280.089L285.022 71.5556C285.467 72.4741 285.867 73.3333 286.222 74.1333C286.578 74.9333 286.889 75.763 287.156 76.6222C287.452 75.763 287.778 74.9333 288.133 74.1333C288.519 73.3333 288.948 72.4741 289.422 71.5556L294.444 61.3333H301.867L282 101.333H274.489Z" fill="black"/>
<path fill-rule="evenodd" clip-rule="evenodd" d="M128.76 13.3314C128.844 13.0455 129.173 12.9126 129.431 13.0619C130.024 13.4064 130.546 13.8403 130.998 14.3646C133.429 17.1877 134.774 20.4552 135.032 24.1654C135.073 24.7493 134.957 25.4453 134.685 26.2523C134.674 26.2827 134.694 26.315 134.724 26.3236C134.743 26.3266 134.765 26.3127 134.77 26.2934L135.197 24.9379C135.219 24.8686 135.272 24.8111 135.339 24.7797L136.461 24.2728C136.5 24.2567 136.541 24.2482 136.585 24.2514C136.861 24.2654 136.966 24.4008 136.906 24.6586C136.892 24.7137 136.943 24.7671 136.999 24.7533L137.695 24.5805C137.784 24.5588 137.861 24.6394 137.836 24.725C137.797 24.8614 137.677 25.0165 137.476 25.1908C137.407 25.2515 137.464 25.3644 137.556 25.3432L139.136 24.9525C139.205 24.9363 139.27 24.9914 139.262 25.0629C139.231 25.2881 139.194 25.4644 139.15 25.5922C139.123 25.6723 139.18 25.7581 139.267 25.7582C139.63 25.7614 139.946 25.7133 140.209 25.6137C140.306 25.5779 140.406 25.6692 140.375 25.7699L140.205 26.3568C140.193 26.3958 140.231 26.4315 140.27 26.4154L141.202 25.9945C141.296 25.9523 141.407 26.0164 141.413 26.1215C141.421 26.2405 141.385 26.366 141.31 26.4926C141.262 26.5727 141.335 26.6706 141.424 26.6478L142.248 26.4428C142.477 26.3877 142.621 26.6844 142.436 26.8285C142.333 26.9087 142.264 26.9977 142.228 27.0941C142.195 27.1862 142.278 27.2772 142.374 27.2523L143.395 26.9994C143.661 26.9338 143.846 27.2606 143.653 27.4545C143.548 27.5594 143.483 27.645 143.458 27.7142C143.436 27.7749 143.497 27.8335 143.558 27.8119C143.949 27.6592 144.264 27.6988 144.502 27.9262C144.559 27.9781 144.634 28.0065 144.708 28.0033L145.213 27.9779C145.31 27.9758 145.382 28.0673 145.354 28.1615L145.21 28.6517C145.2 28.6907 145.241 28.7232 145.277 28.7016C145.507 28.5652 145.82 28.4939 146.216 28.4906C146.319 28.4906 146.395 28.5882 146.367 28.6879L146.286 28.9613C146.272 29.0112 146.317 29.0592 146.367 29.0473L147.154 28.8529C147.372 28.7978 147.557 29.0252 147.461 29.2299L147.325 29.5131C147.289 29.5878 147.357 29.6682 147.437 29.6498L148.669 29.3422C148.79 29.3108 148.889 29.4359 148.836 29.5463L148.703 29.8314C148.676 29.8898 148.717 29.9593 148.783 29.9564L149.848 29.9066C149.956 29.9013 150.008 30.0375 149.926 30.1068L149.77 30.2338C149.657 30.328 149.748 30.5103 149.892 30.475L150.671 30.2807C150.782 30.2525 150.895 30.3086 150.943 30.4115L151.024 30.5892C151.063 30.68 151.146 30.7493 151.246 30.7709C152.207 30.9928 152.772 31.1169 152.944 31.142C156.102 31.5937 159.282 32.0932 162.483 32.6381C163.905 32.8797 165.456 32.9887 167.135 32.9584C171.019 32.8945 174.858 32.5058 178.654 31.7963C180.879 31.3803 183.139 30.6406 185.015 30.2582C187.702 29.7154 190.807 29.6627 193.288 30.6215C198.519 32.6419 202.907 37.5107 203.55 43.1137C203.836 45.5873 203.986 47.2857 204.005 48.2055C204.066 51.165 204.046 53.9971 205.366 56.6078C206.325 58.5057 207.052 59.7053 207.404 61.1351C207.77 62.6289 207.791 64.1524 207.473 65.7133C207.462 65.7653 207.414 65.8014 207.362 65.7992C207.309 65.7936 207.264 65.7515 207.261 65.6996C207.186 64.6466 207.023 63.7237 206.777 62.934C206.77 62.9177 206.754 62.9053 206.735 62.9086C206.719 62.914 206.704 62.9283 206.707 62.9476C206.901 64.9864 207.085 67.1924 206.275 69.2182C206.223 69.3482 206.034 69.3351 206 69.1986C205.454 66.9292 204.672 64.8016 203.65 62.8148C203.644 62.8063 203.636 62.8011 203.628 62.8041C203.616 62.8063 203.611 62.8179 203.614 62.8266L203.95 64.4721C203.952 64.4796 203.95 64.4918 203.941 64.4994L203.921 64.517C203.877 64.5352 203.824 64.5189 203.802 64.4779C202.652 62.4554 201.809 61.0251 201.634 58.9408C201.473 56.9876 201.63 54.5879 201.954 52.56C202.073 51.8309 202.131 50.9432 202.127 49.8988C202.122 47.5298 202.089 45.8538 201.535 43.9613C201.512 43.8891 201.408 43.8976 201.399 43.974C201.07 47.3214 199.666 50.3898 198.887 53.6234C197.728 58.428 199.681 62.1 202.707 65.8549C203.45 66.7748 202.796 68.6282 202.751 69.5424C202.552 73.7911 202.724 78.0637 203.264 82.3559C203.475 84.0263 202.38 84.0459 201.515 85.0014C201.247 85.296 201.13 85.6984 201.197 86.0883C201.487 87.803 201.787 89.4652 199.398 89.5238C198.114 89.5542 196.259 89.7963 195.341 89.0531C195.258 88.9871 195.226 88.8755 195.258 88.7738C195.754 87.2715 196.14 86.2357 196.417 85.6615C196.839 84.7949 197.934 83.7828 198.248 82.7299C198.53 81.78 198.693 80.8926 198.74 80.0726C198.946 76.4901 198.685 72.4824 197.299 69.2465C196.057 66.3476 194.388 63.4639 192.295 60.5932C190.702 58.407 188.686 55.6376 186.249 52.2826C186.241 52.2718 186.221 52.2654 186.21 52.2738C186.196 52.2792 186.19 52.297 186.196 52.31L186.791 53.6254C186.88 53.8247 186.825 54.058 186.66 54.1967C182.762 57.4088 177.994 60.1986 172.759 60.5951C168.274 60.9363 164.532 60.3792 160.027 59.7357C159.434 59.6502 158.979 59.559 158.666 59.4594C158.525 59.4117 158.447 59.2624 158.492 59.1205C158.638 58.6525 158.716 58.2201 158.719 57.8236C158.719 57.7826 158.688 57.7441 158.647 57.7387C158.606 57.73 158.563 57.7522 158.549 57.7934C158.07 59.2093 157.5 60.9884 156.842 63.1312C155.953 66.0237 155.69 69.0411 155.514 72.0365C155.506 72.1505 155.456 72.4191 155.362 72.8432C155.325 72.998 155.275 73.1474 155.211 73.2914C154.754 74.2924 154.485 74.9462 154.411 75.2484C154.197 76.0879 154.056 77.2545 153.987 78.7533C153.901 80.5927 153.832 82.4054 153.782 84.1928C153.776 84.3888 153.673 84.572 153.504 84.6771L151.555 85.9027C151.237 86.1021 151.107 86.4983 151.243 86.8471L151.624 87.8392C151.644 87.8912 151.655 87.9451 151.655 88.0004C151.661 90.6378 146.829 90.134 145.308 89.7592C145.155 89.7234 145.075 89.5543 145.141 89.4135L146.471 86.6127C146.627 86.2856 146.832 85.9829 147.079 85.7142C147.308 85.4619 147.611 85.149 147.985 84.7699C149.1 83.6422 149.763 81.8788 150.045 80.308C150.428 78.2021 150.726 75.7385 150.385 73.4994C150.015 71.0641 150.477 68.5419 150.388 65.9398C150.313 63.77 150.103 61.3684 149.757 58.7328C149.701 58.3255 149.596 57.9544 149.438 57.6185C149.377 57.4886 149.283 57.375 149.164 57.2894C147.353 55.9786 145.945 54.8065 145 52.7309C144.908 52.5347 144.609 51.7136 144.099 50.2728C144.03 50.0791 143.944 49.894 143.841 49.7142C143.361 48.8801 142.477 47.8792 141.182 46.7103C138.693 44.4579 137.424 43.3099 137.379 43.268C137.13 43.0405 137.052 42.6811 137.194 42.3734C137.423 41.8665 137.512 41.1211 137.456 40.1322C137.453 40.0986 137.409 40.0949 137.398 40.1264C137.094 41.0959 137.359 42.1461 136.669 43.1547C135.741 44.5185 134.734 45.4791 133.65 46.0424C131.299 47.2579 129.478 48.6169 128.183 50.1098C128.092 50.2158 128.023 50.34 127.975 50.473C127.454 51.9637 127.025 53.0028 125.304 53.4242C122.226 54.1825 119.736 51.7221 119.759 48.7494C119.767 47.8764 120.023 46.8702 120.528 45.7318C121.78 42.8946 122.723 39.776 123.313 36.8305C123.388 36.4567 123.298 35.8664 123.04 35.0629C122.551 33.5171 123.324 32.3368 124.264 31.0531C124.938 30.1368 125.722 29.1611 126.615 28.1225C126.792 27.9177 126.725 27.5988 126.478 27.4818C124.625 26.6152 123.169 25.3752 122.113 23.7709C120.414 21.1861 119.31 17.7534 119.002 14.4613C118.967 14.0767 119.338 13.7819 119.705 13.9076C119.879 13.9651 120.05 14.1176 120.222 14.3578C120.935 15.3588 121.655 16.5123 122.564 17.5404C124.216 19.4048 126.119 21.1701 128.267 22.8373C128.281 22.8459 128.292 22.8568 128.3 22.8685L128.857 23.6107C128.893 23.6584 128.924 23.7054 128.949 23.7553L130.127 25.8773C130.133 25.8891 130.146 25.8942 130.163 25.891H130.174C130.18 25.891 130.182 25.8824 130.18 25.8803C129.551 24.5696 129.204 23.6695 129.143 23.182C128.713 19.7544 128.572 16.5205 128.722 13.4828C128.722 13.4685 128.735 13.4167 128.76 13.3314ZM168.634 38.9994C167.67 38.9994 166.745 39.3823 166.064 40.0639C165.382 40.7454 164.999 41.6703 164.999 42.6342C165.003 43.2684 165.174 43.8906 165.493 44.4389C165.811 44.987 166.268 45.4421 166.817 45.7592V51.7201C166.817 52.202 167.008 52.6645 167.349 53.0053C167.69 53.346 168.152 53.5375 168.634 53.5375C169.116 53.5375 169.579 53.346 169.919 53.0053C170.26 52.6645 170.452 52.202 170.452 51.7201V45.7592C171.001 45.4421 171.458 44.9871 171.777 44.4389C172.096 43.8906 172.265 43.2683 172.269 42.6342C172.269 41.6703 171.886 40.7454 171.205 40.0639C170.523 39.3823 169.598 38.9994 168.634 38.9994Z" fill="black"/>
<path d="M187.014 54.6146C187.067 54.5738 187.144 54.5898 187.181 54.6459C188.264 56.3359 188.825 57.2061 188.855 57.2592C189.287 57.9514 189.581 58.6563 189.675 59.5619C189.93 61.9722 190.499 64.3447 191.379 66.6781C191.735 67.6195 191.652 68.5341 191.134 69.4213C188.483 73.9463 186.358 78.1581 185.241 83.1176C184.976 84.2897 183.43 84.6025 182.587 85.0824C182.376 85.2016 182.282 85.4532 182.36 85.684C182.537 86.2072 182.837 86.8508 182.657 87.2885C181.949 89.014 177.78 88.607 176.338 88.2191C176.184 88.1778 176.106 88.0089 176.172 87.8617C176.915 86.2963 177.39 84.716 178.699 83.5883C179.444 82.9482 179.954 82.3774 180.231 81.8705C181.974 78.6866 183.449 75.4754 184.649 72.2309C185.667 69.476 185.248 66.9023 184.186 64.2699C183.867 63.4802 183.036 61.5482 181.692 58.476C181.637 58.3503 181.683 58.2043 181.802 58.1371C183.447 57.187 185.184 56.0143 187.014 54.6146Z" fill="black"/>
<path d="M158.733 60.0795L160.498 60.3851C160.829 60.4405 161.083 60.7003 161.138 61.0307C161.335 62.2245 161.569 63.6547 161.835 65.3197C162.071 66.7832 162.553 68.3132 162.755 69.6986C162.786 69.9086 162.803 70.1221 162.799 70.3353C162.778 72.2188 162.803 73.4601 162.877 74.056C163.091 75.785 163.509 77.5392 164.127 79.3158C164.432 80.1997 164.551 81.1803 164.463 82.0502C164.424 82.4412 164.208 82.7931 163.878 83.0033C162.232 84.0617 162.326 84.6725 162.924 86.4242C163.276 87.4488 162.045 88.2047 161.188 88.3217C159.712 88.5231 158.35 88.4433 157.103 88.0805C156.803 87.9949 156.64 87.6709 156.751 87.3773C157.095 86.4652 157.535 85.6498 158.076 84.9262C159.306 83.2839 159.817 82.5548 159.992 80.9027C160.324 77.7471 159.711 74.5115 158.056 71.8314C157.953 71.6657 157.824 71.2885 157.665 70.7016C157.352 69.524 157.045 68.2846 156.743 66.9857C156.613 66.4225 156.67 65.6696 156.922 64.724C157.244 63.5141 157.605 62.308 158.003 61.1078C158.095 60.8337 158.245 60.5306 158.453 60.2045C158.511 60.1103 158.622 60.0611 158.733 60.0795Z" fill="black"/>
</svg>
