<svg width="298" height="89" viewBox="0 0 298 89" fill="none" xmlns="http://www.w3.org/2000/svg">
<path d="M0 75V35H13.4667C16.7556 35 19.7185 35.5481 22.3556 36.6444C24.9926 37.7111 27.2444 39.1778 29.1111 41.0444C31.0074 42.8815 32.4444 45.0148 33.4222 47.4444C34.4296 49.8444 34.9333 52.363 34.9333 55C34.9333 57.637 34.4296 60.1704 33.4222 62.6C32.4444 65 31.0074 67.1333 29.1111 69C27.2444 70.837 24.9926 72.3037 22.3556 73.4C19.7185 74.4667 16.7556 75 13.4667 75H0ZM7.02222 68.4667H12.8C15.2593 68.4667 17.3926 68.0963 19.2 67.3556C21.0074 66.6148 22.5185 65.6222 23.7333 64.3778C24.9481 63.1037 25.8519 61.6667 26.4444 60.0667C27.037 58.437 27.3333 56.7481 27.3333 55C27.3333 53.2519 27.037 51.5778 26.4444 49.9778C25.8519 48.3481 24.9481 46.8963 23.7333 45.6222C22.5185 44.3481 21.0074 43.3556 19.2 42.6444C17.3926 41.9037 15.2593 41.5333 12.8 41.5333H7.02222V68.4667Z" fill="white"/>
<path d="M53.5111 75.8C50.8741 75.8 48.4593 75.163 46.2667 73.8889C44.1037 72.6148 42.3852 70.9111 41.1111 68.7778C39.837 66.6444 39.2 64.2741 39.2 61.6667C39.2 59.0593 39.837 56.6889 41.1111 54.5556C42.3852 52.4222 44.1037 50.7185 46.2667 49.4444C48.4593 48.1704 50.8593 47.5333 53.4667 47.5333C56.1333 47.5333 58.5482 48.1704 60.7111 49.4444C62.8741 50.7185 64.5926 52.4222 65.8667 54.5556C67.1704 56.6593 67.8222 59.0296 67.8222 61.6667C67.8222 64.2444 67.1704 66.6148 65.8667 68.7778C64.5926 70.9111 62.8741 72.6148 60.7111 73.8889C58.5482 75.163 56.1482 75.8 53.5111 75.8ZM53.4667 69.4889C54.9185 69.4889 56.2222 69.1333 57.3778 68.4222C58.5333 67.7111 59.4519 66.763 60.1333 65.5778C60.8148 64.3926 61.1556 63.0889 61.1556 61.6667C61.1556 60.2148 60.8148 58.9111 60.1333 57.7556C59.4519 56.5704 58.5333 55.6222 57.3778 54.9111C56.2222 54.2 54.9185 53.8444 53.4667 53.8444C52.0444 53.8444 50.7556 54.2 49.6 54.9111C48.4444 55.6222 47.5259 56.5704 46.8444 57.7556C46.163 58.9111 45.8222 60.2148 45.8222 61.6667C45.8222 63.0889 46.163 64.3926 46.8444 65.5778C47.5259 66.763 48.4444 67.7111 49.6 68.4222C50.7556 69.1333 52.0444 69.4889 53.4667 69.4889Z" fill="white"/>
<path d="M72.9167 75V48.3333H79.1833V51.6222C80.1611 50.2889 81.3611 49.2815 82.7833 48.6C84.2056 47.8889 85.7463 47.5333 87.4056 47.5333C89.3019 47.5333 91.0648 47.9926 92.6944 48.9111C94.3537 49.8296 95.687 51.163 96.6944 52.9111C97.7018 54.6296 98.2056 56.7333 98.2056 59.2222V75H91.2278V60.1556C91.2278 58.4963 90.7389 57.0296 89.7611 55.7556C88.7833 54.4815 87.3907 53.8444 85.5833 53.8444C84.1019 53.8444 82.7833 54.363 81.6278 55.4C80.4722 56.4074 79.8944 57.9481 79.8944 60.0222V75H72.9167Z" fill="white"/>
<path d="M117.74 75.8C114.807 75.8 112.2 75.1778 109.918 73.9333C107.666 72.6889 105.903 70.9852 104.629 68.8222C103.385 66.6296 102.762 64.1556 102.762 61.4C102.762 58.763 103.37 56.4074 104.585 54.3333C105.829 52.2296 107.503 50.5704 109.607 49.3556C111.711 48.1407 114.037 47.5333 116.585 47.5333C119.192 47.5333 121.518 48.1407 123.562 49.3556C125.637 50.5407 127.281 52.1556 128.496 54.2C129.711 56.2444 130.318 58.5704 130.318 61.1778V63.7111H113.74C113 63.7111 112.274 63.6667 111.562 63.5778C110.851 63.4889 110.14 63.3852 109.429 63.2667C109.785 65.1926 110.718 66.7778 112.229 68.0222C113.74 69.2667 115.637 69.8889 117.918 69.8889C119.607 69.8889 121.133 69.5333 122.496 68.8222C123.859 68.1111 124.985 67.2222 125.874 66.1556L127.474 72.6889C126.14 73.7259 124.644 74.4963 122.985 75C121.325 75.5333 119.577 75.8 117.74 75.8ZM109.251 58.9556C110.762 58.6593 112.259 58.5111 113.74 58.5111H119.474C120.274 58.5111 121.029 58.5407 121.74 58.6C122.451 58.6593 123.133 58.7481 123.785 58.8667C123.34 57.1482 122.466 55.7704 121.162 54.7333C119.888 53.6963 118.348 53.1778 116.54 53.1778C114.762 53.1778 113.222 53.7111 111.918 54.7778C110.614 55.8444 109.725 57.237 109.251 58.9556Z" fill="white"/>
<path d="M230.267 75L215.067 50.3333L226.8 35H235.156L223.422 50.2444L238.844 75H230.267ZM208 75V35H215.244V75H208Z" fill="white"/>
<path d="M254.178 75.8C251.244 75.8 248.637 75.1778 246.356 73.9333C244.104 72.6889 242.341 70.9852 241.067 68.8222C239.822 66.6296 239.2 64.1556 239.2 61.4C239.2 58.763 239.807 56.4074 241.022 54.3333C242.267 52.2296 243.941 50.5704 246.044 49.3556C248.148 48.1407 250.474 47.5333 253.022 47.5333C255.63 47.5333 257.956 48.1407 260 49.3556C262.074 50.5407 263.719 52.1556 264.933 54.2C266.148 56.2444 266.756 58.5704 266.756 61.1778V63.7111H250.178C249.437 63.7111 248.711 63.6667 248 63.5778C247.289 63.4889 246.578 63.3852 245.867 63.2667C246.222 65.1926 247.156 66.7778 248.667 68.0222C250.178 69.2667 252.074 69.8889 254.356 69.8889C256.044 69.8889 257.57 69.5333 258.933 68.8222C260.296 68.1111 261.422 67.2222 262.311 66.1556L263.911 72.6889C262.578 73.7259 261.081 74.4963 259.422 75C257.763 75.5333 256.015 75.8 254.178 75.8ZM245.689 58.9556C247.2 58.6593 248.696 58.5111 250.178 58.5111H255.911C256.711 58.5111 257.467 58.5407 258.178 58.6C258.889 58.6593 259.57 58.7481 260.222 58.8667C259.778 57.1482 258.904 55.7704 257.6 54.7333C256.326 53.6963 254.785 53.1778 252.978 53.1778C251.2 53.1778 249.659 53.7111 248.356 54.7778C247.052 55.8444 246.163 57.237 245.689 58.9556Z" fill="white"/>
<path d="M269.867 88.3333L278.711 70.6444L267.733 48.3333H275.467L280.4 58.5556C280.844 59.4741 281.244 60.3333 281.6 61.1333C281.956 61.9333 282.267 62.763 282.533 63.6222C282.83 62.763 283.156 61.9333 283.511 61.1333C283.896 60.3333 284.326 59.4741 284.8 58.5556L289.822 48.3333H297.244L277.378 88.3333H269.867Z" fill="white"/>
<path fill-rule="evenodd" clip-rule="evenodd" d="M124.138 0.331436C124.221 0.0454949 124.551 -0.0874482 124.809 0.0619049C125.401 0.406405 125.923 0.840306 126.376 1.36464C128.807 4.18771 130.152 7.45517 130.409 11.1654C130.451 11.7493 130.335 12.4453 130.063 13.2523C130.052 13.2827 130.072 13.315 130.102 13.3236C130.121 13.3266 130.142 13.3127 130.148 13.2934L130.575 11.9379C130.597 11.8686 130.65 11.8111 130.717 11.7797L131.839 11.2728C131.878 11.2567 131.919 11.2482 131.963 11.2514C132.238 11.2654 132.344 11.4008 132.283 11.6586C132.269 11.7137 132.321 11.7671 132.377 11.7533L133.073 11.5805C133.161 11.5588 133.239 11.6394 133.214 11.725C133.175 11.8614 133.055 12.0165 132.854 12.1908C132.785 12.2515 132.842 12.3644 132.934 12.3432L134.514 11.9525C134.583 11.9363 134.648 11.9914 134.64 12.0629C134.609 12.2881 134.572 12.4644 134.528 12.5922C134.501 12.6723 134.558 12.7581 134.645 12.7582C135.008 12.7614 135.324 12.7133 135.587 12.6137C135.684 12.5779 135.783 12.6692 135.753 12.7699L135.582 13.3568C135.57 13.3958 135.609 13.4315 135.648 13.4154L136.579 12.9945C136.674 12.9523 136.785 13.0164 136.79 13.1215C136.799 13.2405 136.762 13.366 136.688 13.4926C136.64 13.5727 136.713 13.6706 136.802 13.6478L137.625 13.4428C137.855 13.3877 137.999 13.6844 137.814 13.8285C137.711 13.9087 137.642 13.9977 137.606 14.0941C137.572 14.1862 137.656 14.2772 137.752 14.2523L138.773 13.9994C139.039 13.9338 139.224 14.2606 139.031 14.4545C138.926 14.5594 138.861 14.645 138.836 14.7142C138.813 14.7749 138.875 14.8335 138.936 14.8119C139.327 14.6592 139.642 14.6988 139.88 14.9262C139.936 14.9781 140.012 15.0065 140.086 15.0033L140.591 14.9779C140.688 14.9758 140.76 15.0673 140.732 15.1615L140.588 15.6517C140.577 15.6907 140.619 15.7232 140.655 15.7016C140.885 15.5652 141.198 15.4939 141.594 15.4906C141.697 15.4906 141.773 15.5882 141.744 15.6879L141.663 15.9613C141.649 16.0112 141.695 16.0592 141.744 16.0473L142.532 15.8529C142.75 15.7978 142.935 16.0252 142.839 16.2299L142.702 16.5131C142.667 16.5878 142.735 16.6682 142.815 16.6498L144.047 16.3422C144.167 16.3108 144.267 16.4359 144.214 16.5463L144.08 16.8314C144.053 16.8898 144.095 16.9593 144.16 16.9564L145.226 16.9066C145.334 16.9013 145.386 17.0375 145.304 17.1068L145.148 17.2338C145.034 17.328 145.126 17.5103 145.27 17.475L146.049 17.2807C146.16 17.2525 146.273 17.3086 146.321 17.4115L146.402 17.5892C146.441 17.68 146.524 17.7493 146.623 17.7709C147.584 17.9928 148.15 18.1169 148.322 18.142C151.479 18.5937 154.659 19.0932 157.861 19.6381C159.283 19.8797 160.834 19.9887 162.513 19.9584C166.397 19.8945 170.236 19.5058 174.032 18.7963C176.257 18.3803 178.517 17.6406 180.393 17.2582C183.08 16.7154 186.184 16.6627 188.665 17.6215C193.897 19.6419 198.285 24.5107 198.928 30.1137C199.214 32.5873 199.364 34.2857 199.383 35.2055C199.444 38.165 199.424 40.9971 200.743 43.6078C201.703 45.5057 202.429 46.7053 202.782 48.1351C203.148 49.6289 203.169 51.1524 202.851 52.7133C202.84 52.7653 202.792 52.8014 202.74 52.7992C202.687 52.7936 202.642 52.7515 202.639 52.6996C202.564 51.6466 202.401 50.7237 202.155 49.934C202.148 49.9177 202.132 49.9053 202.113 49.9086C202.096 49.914 202.082 49.9283 202.085 49.9476C202.279 51.9864 202.463 54.1924 201.653 56.2182C201.601 56.3482 201.412 56.3351 201.378 56.1986C200.832 53.9292 200.05 51.8016 199.028 49.8148C199.022 49.8063 199.014 49.8011 199.006 49.8041C198.994 49.8063 198.988 49.8179 198.992 49.8266L199.327 51.4721C199.33 51.4796 199.327 51.4918 199.319 51.4994L199.299 51.517C199.255 51.5352 199.202 51.5189 199.18 51.4779C198.029 49.4554 197.186 48.0251 197.012 45.9408C196.851 43.9876 197.007 41.5879 197.331 39.56C197.451 38.8309 197.508 37.9432 197.505 36.8988C197.5 34.5298 197.467 32.8538 196.912 30.9613C196.89 30.8891 196.786 30.8976 196.777 30.974C196.447 34.3214 195.044 37.3898 194.265 40.6234C193.106 45.428 195.058 49.1 198.085 52.8549C198.828 53.7748 198.174 55.6282 198.129 56.5424C197.93 60.7911 198.101 65.0637 198.642 69.3559C198.853 71.0263 197.757 71.0459 196.893 72.0014C196.624 72.296 196.507 72.6984 196.575 73.0883C196.865 74.803 197.165 76.4652 194.776 76.5238C193.492 76.5542 191.637 76.7963 190.719 76.0531C190.636 75.9871 190.604 75.8755 190.636 75.7738C191.132 74.2715 191.518 73.2357 191.795 72.6615C192.217 71.7949 193.312 70.7828 193.625 69.7299C193.908 68.78 194.071 67.8926 194.117 67.0726C194.323 63.4901 194.063 59.4824 192.677 56.2465C191.435 53.3476 189.766 50.4639 187.673 47.5932C186.08 45.407 184.064 42.6376 181.627 39.2826C181.619 39.2718 181.599 39.2654 181.588 39.2738C181.574 39.2792 181.568 39.297 181.574 39.31L182.169 40.6254C182.258 40.8247 182.203 41.058 182.037 41.1967C178.14 44.4088 173.372 47.1986 168.137 47.5951C163.652 47.9363 159.91 47.3792 155.405 46.7357C154.812 46.6502 154.357 46.559 154.044 46.4594C153.902 46.4117 153.825 46.2624 153.869 46.1205C154.016 45.6525 154.094 45.2201 154.097 44.8236C154.097 44.7826 154.066 44.7441 154.025 44.7387C153.984 44.73 153.941 44.7522 153.927 44.7934C153.448 46.2093 152.878 47.9884 152.22 50.1312C151.331 53.0237 151.067 56.0411 150.892 59.0365C150.884 59.1505 150.834 59.4191 150.74 59.8432C150.703 59.998 150.653 60.1474 150.589 60.2914C150.132 61.2924 149.863 61.9462 149.788 62.2484C149.575 63.0879 149.434 64.2545 149.365 65.7533C149.279 67.5927 149.209 69.4054 149.159 71.1928C149.154 71.3888 149.051 71.572 148.882 71.6771L146.933 72.9027C146.615 73.1021 146.485 73.4983 146.62 73.8471L147.002 74.8392C147.022 74.8912 147.033 74.9451 147.033 75.0004C147.039 77.6378 142.207 77.134 140.686 76.7592C140.533 76.7234 140.453 76.5543 140.519 76.4135L141.849 73.6127C142.005 73.2856 142.209 72.9829 142.456 72.7142C142.686 72.4619 142.989 72.149 143.363 71.7699C144.477 70.6422 145.14 68.8788 145.423 67.308C145.806 65.2021 146.104 62.7385 145.763 60.4994C145.393 58.0641 145.855 55.5419 145.766 52.9398C145.691 50.77 145.481 48.3684 145.135 45.7328C145.079 45.3255 144.974 44.9544 144.816 44.6185C144.755 44.4886 144.66 44.375 144.541 44.2894C142.731 42.9786 141.323 41.8065 140.378 39.7309C140.286 39.5347 139.987 38.7136 139.477 37.2728C139.408 37.0791 139.322 36.894 139.219 36.7142C138.739 35.8801 137.854 34.8792 136.56 33.7103C134.071 31.4579 132.802 30.3099 132.757 30.268C132.508 30.0405 132.43 29.6811 132.572 29.3734C132.801 28.8665 132.889 28.1211 132.834 27.1322C132.831 27.0986 132.787 27.0949 132.776 27.1264C132.471 28.0959 132.737 29.1461 132.047 30.1547C131.119 31.5185 130.112 32.4791 129.028 33.0424C126.677 34.2579 124.855 35.6169 123.561 37.1098C123.47 37.2158 123.4 37.34 123.353 37.473C122.832 38.9637 122.403 40.0028 120.682 40.4242C117.604 41.1825 115.114 38.7221 115.137 35.7494C115.145 34.8764 115.401 33.8702 115.906 32.7318C117.158 29.8946 118.1 26.776 118.691 23.8305C118.765 23.4567 118.676 22.8664 118.418 22.0629C117.929 20.5171 118.702 19.3368 119.642 18.0531C120.316 17.1368 121.1 16.1611 121.992 15.1225C122.17 14.9177 122.103 14.5988 121.856 14.4818C120.002 13.6152 118.547 12.3752 117.491 10.7709C115.792 8.18612 114.688 4.75343 114.38 1.46132C114.344 1.07674 114.716 0.781941 115.082 0.907608C115.257 0.965058 115.428 1.11759 115.6 1.3578C116.313 2.3588 117.033 3.51234 117.942 4.54042C119.594 6.40481 121.497 8.17007 123.645 9.8373C123.659 9.84587 123.669 9.85679 123.678 9.86855L124.235 10.6107C124.27 10.6584 124.302 10.7054 124.326 10.7553L125.505 12.8773C125.511 12.8891 125.524 12.8942 125.54 12.891H125.552C125.557 12.891 125.56 12.8824 125.558 12.8803C124.929 11.5696 124.581 10.6695 124.521 10.182C124.091 6.75437 123.949 3.52046 124.1 0.482803C124.1 0.468523 124.113 0.416706 124.138 0.331436ZM164.012 25.9994C163.048 25.9994 162.123 26.3823 161.442 27.0639C160.76 27.7454 160.377 28.6703 160.377 29.6342C160.381 30.2684 160.552 30.8906 160.87 31.4389C161.189 31.987 161.646 32.4421 162.195 32.7592V38.7201C162.195 39.202 162.386 39.6645 162.727 40.0053C163.068 40.346 163.53 40.5375 164.012 40.5375C164.494 40.5375 164.956 40.346 165.297 40.0053C165.638 39.6645 165.829 39.202 165.829 38.7201V32.7592C166.379 32.4421 166.836 31.9871 167.155 31.4389C167.473 30.8906 167.643 30.2683 167.647 29.6342C167.647 28.6703 167.264 27.7454 166.582 27.0639C165.901 26.3823 164.976 25.9994 164.012 25.9994Z" fill="white"/>
<path d="M182.392 41.6146C182.445 41.5738 182.522 41.5898 182.559 41.6459C183.642 43.3359 184.202 44.2061 184.233 44.2592C184.665 44.9514 184.959 45.6563 185.053 46.5619C185.308 48.9722 185.876 51.3447 186.757 53.6781C187.112 54.6195 187.03 55.5341 186.512 56.4213C183.861 60.9463 181.735 65.1581 180.618 70.1176C180.354 71.2897 178.808 71.6025 177.965 72.0824C177.754 72.2016 177.66 72.4532 177.738 72.684C177.915 73.2072 178.214 73.8508 178.034 74.2885C177.327 76.014 173.158 75.607 171.716 75.2191C171.561 75.1778 171.484 75.0089 171.55 74.8617C172.293 73.2963 172.768 71.716 174.076 70.5883C174.822 69.9482 175.331 69.3774 175.609 68.8705C177.352 65.6866 178.826 62.4754 180.027 59.2309C181.045 56.476 180.625 53.9023 179.564 51.2699C179.245 50.4802 178.414 48.5482 177.07 45.476C177.014 45.3503 177.061 45.2043 177.18 45.1371C178.824 44.187 180.562 43.0143 182.392 41.6146Z" fill="white"/>
<path d="M154.111 47.0795L155.876 47.3851C156.207 47.4405 156.461 47.7003 156.516 48.0307C156.713 49.2245 156.947 50.6547 157.213 52.3197C157.448 53.7832 157.931 55.3132 158.133 56.6986C158.163 56.9086 158.18 57.1221 158.177 57.3353C158.155 59.2188 158.18 60.4601 158.255 61.056C158.469 62.785 158.887 64.5392 159.505 66.3158C159.81 67.1997 159.929 68.1803 159.841 69.0502C159.802 69.4412 159.585 69.7931 159.256 70.0033C157.609 71.0617 157.704 71.6725 158.302 73.4242C158.654 74.4488 157.422 75.2047 156.566 75.3217C155.089 75.5231 153.728 75.4433 152.481 75.0805C152.181 74.9949 152.018 74.6709 152.129 74.3773C152.473 73.4652 152.913 72.6498 153.453 71.9262C154.684 70.2839 155.195 69.5548 155.369 67.9027C155.702 64.7471 155.089 61.5115 153.434 58.8314C153.331 58.6657 153.201 58.2885 153.043 57.7016C152.73 56.524 152.423 55.2846 152.12 53.9857C151.99 53.4225 152.048 52.6696 152.3 51.724C152.622 50.5141 152.983 49.308 153.381 48.1078C153.473 47.8337 153.622 47.5306 153.83 47.2045C153.889 47.1103 154 47.0611 154.111 47.0795Z" fill="white"/>
</svg>
